# xmcd
#
# Track frame offsets:
#	150
#	14508
#	27617
#	42208
#	54352
#	70384
#	87558
#	102698
#	114617
#	130650
#	146965
#	160917
#	174382
#	187196
#	202534
#	217653
#
# Disc length: 3133 seconds
#
# Revision: 1
# Processed by: cddbd v1.5.2PL0 Copyright (c) Steve Scherf et al.
# Submitted via: audiograbber 1.83.01
#
DISCID=e80c3b10
DTITLE=CADETES DE LINARES - Las Mas Cañonas
DYEAR=2006
DGENRE=NORTEÑO
TTITLE0=Los Dos Amigos         
TTITLE1=Las Tres Tumbas    
TTITLE2=El Palomito       
TTITLE3=Dos Coronas A Mi Madre    
TTITLE4=Pueblito           
TTITLE5=El Hijo Del Palenque   
TTITLE6=No'mas Las Mujeres Quedan     
TTITLE7=Amigo 
TTITLE8=Arriba Santa Rosa     
TTITLE9=Serpiente De Mil Cabezas     
TTITLE10=La Mujer Que Anhele
TTITLE11=Despadida Con Mariachi    
TTITLE12=Rezando Por Ella  
TTITLE13=El Hijo Malvado        
TTITLE14=El Pata De Palo  
TTITLE15=La Heche En Un Carrito        
EXTD=
EXTT0=
EXTT1=
EXTT2=
EXTT3=
EXTT4=
EXTT5=
EXTT6=
EXTT7=
EXTT8=
EXTT9=
EXTT10=
EXTT11=
EXTT12=
EXTT13=
EXTT14=
EXTT15=
PLAYORDER=
